# xmcd
#
# Track frame offsets:
#	150
#	15750
#	35014
#	61299
#	78918
#	96995
#	110426
#	126704
#	148860
#	175505
#
# Disc length: 2572 seconds
# Revision: 0
# Processed by: cddbd v1.5.2PL0 Copyright (c) Steve Scherf et al.
# Submitted via: dBpowerAMP V12.0
#
DISCID=810a0a0a
DTITLE=Lee Delray - 570-Blues
DYEAR=2013
DGENRE=Blues
TTITLE0=Walking In The Rain
TTITLE1=Don't Know Why
TTITLE2=Don't Tell Me I Can't Get The Blues
TTITLE3=How Much I Love You
TTITLE4=I Got It
TTITLE5=It's A Little Too Late
TTITLE6=Need To Talk
TTITLE7=House Of Love
TTITLE8=No Time Blues
TTITLE9=She's Got Everything
EXTD=
EXTT0=
EXTT1=
EXTT2=
EXTT3=
EXTT4=
EXTT5=
EXTT6=
EXTT7=
EXTT8=
EXTT9=
PLAYORDER=
